<svg version="1.1" id="Layer_1" xmlns="http://www.w3.org/2000/svg" xmlns:xlink="http://www.w3.org/1999/xlink" x="0px" y="0px"
	 width="100%" viewBox="0 0 576 368" enable-background="new 0 0 576 368" xml:space="preserve">
<path fill="#000000" opacity="1.000000" stroke="none" 
	d="
M218.251266,325.437469 
	C210.140884,326.718414 202.508392,328.401367 194.786957,329.096619 
	C187.426834,329.759369 180.810776,333.667877 173.475540,333.673767 
	C164.877533,333.680664 156.061249,333.471710 151.134064,324.394196 
	C149.354248,321.115204 146.870743,319.617676 143.018600,318.882141 
	C132.314392,316.838257 130.467438,313.398560 131.444717,302.709747 
	C132.109100,295.442932 131.642838,288.194763 127.021049,281.767914 
	C123.216866,276.477997 124.552727,270.308777 125.190758,264.370667 
	C125.846153,258.271027 126.383881,252.181229 124.105164,245.937881 
	C114.865204,247.200394 105.809143,248.053162 96.921402,249.774841 
	C89.913094,251.132462 85.785568,257.750916 87.327644,264.872986 
	C91.001060,281.838654 82.611771,289.732666 71.422157,295.333588 
	C67.570358,297.261597 63.763584,299.285950 59.860348,301.103333 
	C52.686535,304.443542 49.032616,302.273346 45.204857,295.348694 
	C41.631882,288.884918 42.337704,283.803467 46.715977,278.530762 
	C48.270336,276.658875 48.847191,274.486938 48.680843,272.030151 
	C47.832809,259.505646 49.354397,247.332092 53.039490,235.261551 
	C54.656776,229.964096 54.495640,224.171921 56.930904,218.914917 
	C61.883041,208.224716 69.880898,200.202652 78.984482,193.161499 
	C81.656898,191.094513 82.906876,189.256302 82.001472,185.670715 
	C79.090446,174.142395 82.780647,165.156311 92.426125,157.982361 
	C99.101456,153.017487 106.245987,148.794830 113.071159,144.098679 
	C124.526726,136.216507 132.088593,125.273407 139.800781,114.268814 
	C140.462524,113.324539 141.140717,112.391762 141.804245,111.463455 
	C133.198639,103.395683 133.350967,101.940300 137.893860,88.771179 
	C140.880676,80.112877 146.628036,73.732048 153.934875,69.716568 
	C160.634155,66.034981 168.876099,65.867569 176.600388,68.364342 
	C179.439880,69.282166 182.288101,70.260101 184.978348,71.535454 
	C191.990509,74.859673 197.960327,74.044350 204.776276,69.753868 
	C209.805466,66.588104 212.953690,62.363037 216.590179,58.226898 
	C222.972687,50.967453 231.399231,49.401859 240.244995,50.951450 
	C250.591385,52.763916 260.900238,54.008759 271.404968,53.668938 
	C280.547119,53.373196 289.627258,54.122246 298.669800,55.501442 
	C300.531677,55.785416 302.587952,56.079163 304.221558,54.965321 
	C304.292175,53.089695 303.062469,52.766582 302.162781,52.053890 
	C293.667053,45.323738 293.101196,33.620937 300.839630,25.940329 
	C306.408203,20.413364 312.990479,17.412964 320.953278,17.631804 
	C325.116333,17.746220 329.285217,17.691133 333.450928,17.653105 
	C336.971588,17.620964 340.112366,18.822216 342.450928,21.289402 
	C345.201538,24.191257 348.447754,25.955320 352.172668,27.074240 
	C357.289825,28.611351 362.152222,30.697645 366.625519,33.665363 
	C372.251099,37.397511 378.869415,37.540062 385.204926,38.560059 
	C399.660675,40.887383 412.224792,47.012978 423.574799,56.219372 
	C430.381256,61.740326 437.850647,66.447098 445.051636,71.477554 
	C450.540100,75.311684 454.797852,79.939896 455.923187,86.882530 
	C456.633972,91.267876 455.554443,95.466484 454.619476,99.601624 
	C451.694000,112.540253 448.778503,125.511635 442.401917,137.348312 
	C442.104919,137.899658 442.066925,138.590515 441.792297,139.674133 
	C446.170624,141.205200 450.680237,141.106903 455.003326,141.540619 
	C461.810394,142.223541 468.483032,143.223694 474.753296,146.017090 
	C478.499481,147.686005 481.866119,150.129654 482.614899,154.420593 
	C483.740540,160.870895 488.220886,163.918259 493.569702,166.224960 
	C501.471161,169.632492 501.492188,169.583725 507.275848,162.803070 
	C512.837341,156.282928 530.583740,154.343216 537.489258,159.500748 
	C541.108215,162.203644 542.499023,167.415131 540.767639,172.138321 
	C540.255005,173.536728 539.631042,174.934921 538.818726,176.176544 
	C530.323792,189.160583 531.279663,203.286819 533.829224,217.571487 
	C534.718201,222.552628 534.611633,227.566696 534.121643,232.489487 
	C533.718506,236.538910 530.703186,239.734726 526.935486,240.684906 
	C523.226013,241.620407 518.905518,244.110474 515.435486,238.967606 
	C513.480530,236.070221 510.058472,234.162674 507.200409,231.726608 
	C505.431305,232.871750 503.660553,233.797302 502.149200,235.038681 
	C498.012238,238.436600 496.704346,240.629776 501.194366,244.124451 
	C502.692047,245.290146 503.498901,246.948364 503.332092,248.950363 
	C502.683746,256.732239 504.886200,264.095001 506.797089,271.469635 
	C509.750641,282.868408 501.894958,287.986877 491.456512,286.791962 
	C490.155182,286.643005 488.912415,286.041321 487.616547,285.776367 
	C478.684357,283.949921 473.744995,278.432220 472.775604,269.459198 
	C472.504028,266.945496 471.779785,264.494720 469.566467,263.731445 
	C466.875702,262.803528 464.785828,265.140472 463.476013,267.105225 
	C458.063507,275.224060 450.638123,276.934875 441.714264,274.616150 
	C439.953430,274.158569 438.172729,273.765839 436.386292,273.420227 
	C423.744690,270.974579 415.700562,264.055115 414.696808,250.649673 
	C414.463226,247.530151 412.671570,245.646652 410.343109,242.101913 
	C410.343109,247.939758 410.122223,252.384003 410.383118,256.799805 
	C411.284363,272.053009 407.850372,286.054871 397.142578,297.238434 
	C387.869965,306.923035 390.502838,316.708588 394.970093,327.041199 
	C398.522949,335.258850 398.923798,343.422058 393.911255,351.288818 
	C390.096008,357.276520 381.080261,358.309357 375.591339,353.648438 
	C369.830933,348.756989 366.025146,342.213226 360.971130,336.699890 
	C355.112762,330.309082 348.708069,324.612701 342.344727,318.826111 
	C340.910706,317.522064 339.878876,316.436890 339.706848,314.365662 
	C339.033539,306.257874 332.809631,299.144653 324.771484,297.399261 
	C319.059052,296.158875 313.672211,294.487122 308.779083,291.028687 
	C299.311188,284.336884 296.629761,278.073792 299.050568,266.646851 
	C299.181122,266.030548 299.367737,265.426117 299.694061,264.186035 
	C286.113892,275.275391 277.834900,288.483521 276.282684,305.631378 
	C275.610382,313.058350 272.221313,319.612274 268.055603,325.703796 
	C265.666473,329.197449 262.202484,331.226410 257.972839,331.283813 
	C249.600754,331.397400 241.336395,331.115204 233.299042,327.876556 
	C228.768768,326.051117 223.704803,325.389954 218.251266,325.437469 
M431.364319,84.186874 
	C413.997528,75.460236 395.949036,68.716377 376.737976,65.319427 
	C371.705292,64.429535 366.667328,63.772663 361.752991,62.043121 
	C356.261658,60.110512 351.772827,56.292809 346.190063,54.297680 
	C348.516144,65.286179 343.421478,72.852959 332.687500,73.147835 
	C324.543243,73.371559 316.453491,74.220711 308.316162,74.405975 
	C291.344635,74.792358 274.512360,71.725922 257.552429,72.426651 
	C251.262314,72.686531 244.937927,73.336411 238.918350,71.302628 
	C233.036560,69.315399 229.239944,72.091728 226.033585,76.141129 
	C216.740845,87.877197 204.747467,93.538040 189.779282,93.452400 
	C186.352707,93.432785 183.112976,91.563599 181.250809,92.049210 
	C173.350937,112.121864 159.964294,127.119392 147.993683,142.881577 
	C135.637360,159.151657 117.692917,168.830811 101.087685,180.202927 
	C101.283066,182.450104 101.206276,184.826126 101.735153,187.058655 
	C103.557487,194.751144 100.878632,200.909363 95.121010,205.677887 
	C90.800194,209.256454 85.950417,212.200592 81.306053,215.383301 
	C73.091309,221.012711 67.842903,228.248016 68.295227,238.729858 
	C68.365341,240.354752 67.773262,241.998108 67.723557,243.640076 
	C67.546799,249.478989 62.901108,254.503159 64.434067,260.563171 
	C65.623383,265.264740 65.267632,269.997681 65.310005,274.878052 
	C67.837006,273.572937 68.767761,272.100739 67.928459,269.212402 
	C67.255966,266.898071 67.712158,264.255585 67.669083,261.758667 
	C67.476219,250.578751 78.338470,237.480789 88.797043,236.208115 
	C100.602242,234.771561 112.293785,232.309967 123.983528,229.964401 
	C128.828766,228.992203 135.131104,227.695541 138.294815,233.803040 
	C141.711609,240.399109 142.420166,247.633484 141.967804,255.044022 
	C141.472870,263.152313 139.151520,271.446350 144.437790,279.069031 
	C145.922363,281.209778 146.042587,284.026489 146.437836,286.688354 
	C147.260422,292.228210 147.454758,297.794250 147.226517,303.639252 
	C154.036728,303.378632 160.078156,304.093445 163.266708,310.325897 
	C165.868835,315.412109 169.501297,315.827362 174.373337,314.249084 
	C182.247025,311.698456 189.941467,308.682800 198.095749,306.866150 
	C212.382751,303.683289 226.469391,302.007111 240.787140,306.621979 
	C251.792267,310.169159 252.186081,309.709167 253.682755,298.172180 
	C255.049805,287.634430 256.357574,277.122040 262.949493,268.105804 
	C270.358673,257.971619 278.748077,248.786209 288.958405,241.525009 
	C294.150024,237.832916 299.301575,233.862015 306.930084,235.413666 
	C312.888245,236.625580 316.862396,238.806442 319.461487,244.374329 
	C322.712799,251.339325 322.348175,258.592041 322.341644,265.888580 
	C322.335907,272.330627 322.865784,272.602844 329.196472,273.693085 
	C344.923553,276.401459 356.478821,285.782654 361.401917,300.232513 
	C364.406433,309.051178 365.665680,318.105438 372.886749,324.758331 
	C373.213104,325.059021 373.554596,325.343262 374.070862,325.793884 
	C373.127960,319.660858 371.113953,313.929962 372.017181,307.901550 
	C373.493469,298.047913 378.943298,290.666473 386.297424,284.239044 
	C397.034180,274.855255 397.766907,262.247803 396.086060,249.403046 
	C394.970062,240.874771 395.913696,233.537537 403.054382,227.924286 
	C406.754944,225.015305 416.585632,224.567978 419.435883,227.817825 
	C425.305878,234.510696 431.797394,240.998108 432.354706,250.735657 
	C432.424988,251.963501 432.666077,252.959061 433.963257,253.541260 
	C445.297974,258.628448 447.930420,259.565308 458.038666,251.958725 
	C460.389709,250.189514 462.608063,247.715179 465.781342,247.758530 
	C470.662964,247.825211 475.750519,246.485641 480.249573,249.913864 
	C484.256195,252.966873 486.900635,256.865143 488.480011,261.360870 
	C489.874725,256.467896 487.166168,252.907730 484.274902,249.356354 
	C480.626617,244.875183 479.734253,239.870636 481.910767,234.453812 
	C485.058167,226.620621 491.868042,222.281586 498.140289,217.376480 
	C502.745850,213.774765 507.643341,214.135864 512.777466,215.505173 
	C513.835693,215.787415 514.815735,216.821472 516.666748,215.387115 
	C515.331177,202.735779 514.094910,189.537033 520.553467,176.622849 
	C518.260803,177.207047 517.014343,177.723343 516.195984,178.833267 
	C513.170959,182.935715 508.949677,183.988571 504.236816,183.335526 
	C494.506561,181.987244 485.177979,179.164185 476.572601,174.419815 
	C473.439972,172.692719 470.231537,170.449509 469.351807,166.530334 
	C467.826233,159.733902 462.857117,158.396713 456.954956,158.387314 
	C449.957458,158.376190 442.949219,158.608734 435.966522,158.284668 
	C431.760315,158.089478 426.102417,157.838089 424.366241,154.280212 
	C421.197083,147.785751 419.960693,140.388321 423.518982,133.169876 
	C429.272552,121.498001 432.911469,109.087555 436.156616,96.539574 
	C437.447266,91.548958 436.959930,87.296707 431.364319,84.186874 
z"/>
</svg>