<?xml version="1.0" standalone="no"?>
<!DOCTYPE svg PUBLIC "-//W3C//DTD SVG 20010904//EN"
 "http://www.w3.org/TR/2001/REC-SVG-20010904/DTD/svg10.dtd">
<svg version="1.0" xmlns="http://www.w3.org/2000/svg"
 width="1372.000000pt" height="1606.000000pt" viewBox="0 0 1372.000000 1606.000000"
 preserveAspectRatio="xMidYMid meet">

<g transform="translate(0.000000,1606.000000) scale(0.100000,-0.100000)"
fill="#000000" stroke="none">
<path d="M6780 15347 c-754 -741 -2222 -1444 -3775 -1806 -707 -165 -1385
-255 -2083 -277 l-213 -7 5 -61 c3 -34 8 -221 11 -416 3 -195 7 -521 10 -725
8 -506 23 -2222 31 -3360 l6 -940 29 -192 c154 -1022 481 -1990 944 -2793 787
-1367 2014 -2484 3943 -3589 406 -232 1254 -681 1288 -681 31 0 652 309 979
488 981 534 1850 1139 2583 1795 182 163 580 558 737 732 1004 1109 1613 2335
1799 3616 61 423 64 513 41 1486 -8 351 -35 1538 -60 2637 -25 1100 -47 2001
-48 2003 -2 1 -147 23 -322 48 -2443 347 -4399 1071 -5652 2092 -57 45 -106
83 -110 83 -5 0 -69 -60 -143 -133z m186 -970 c199 -168 566 -421 839 -577
1049 -601 2498 -1045 4128 -1266 l207 -28 0 -51 c0 -27 7 -338 15 -690 8 -352
24 -1043 35 -1535 11 -492 27 -1185 35 -1540 18 -783 19 -979 5 -1135 -111
-1212 -622 -2323 -1548 -3365 -123 -139 -466 -482 -627 -629 -775 -705 -1822
-1393 -2912 -1912 l-173 -82 -192 98 c-1776 904 -2937 1761 -3746 2767 -714
886 -1171 1966 -1356 3198 l-24 165 -12 1525 c-9 1334 -23 2603 -32 3045 l-3
140 115 2 c435 9 944 62 1412 149 1295 238 2593 772 3390 1394 125 98 346 295
375 335 10 13 21 25 24 25 3 0 23 -15 45 -33z"/>
<path d="M6820 13527 c-906 -866 -2814 -1540 -4450 -1570 l-115 -2 0 -75 c0
-41 4 -316 8 -610 13 -875 27 -2241 27 -2755 1 -629 9 -768 54 -1015 163 -877
435 -1576 871 -2235 684 -1033 1774 -1902 3498 -2786 l252 -129 245 121 c1020
503 1842 1053 2535 1696 896 832 1475 1756 1720 2745 84 343 127 662 126 953
0 211 -78 3744 -87 3951 l-6 140 -171 23 c-412 54 -917 148 -1322 244 -1255
299 -2293 763 -3010 1347 l-70 57 -105 -100z"/>
</g>
</svg>
