<svg version="1.0" xmlns="http://www.w3.org/2000/svg"
 width="256.000000pt" height="256.000000pt" viewBox="0 0 256.000000 256.000000"
 preserveAspectRatio="xMidYMid meet">
<g transform="translate(0.000000,256.000000) scale(0.100000,-0.100000)"
fill="red" stroke="none">
<path d="M285 2545 c-22 -8 -45 -22 -52 -32 -10 -13 -13 -275 -13 -1265 l0
-1248 155 0 155 0 0 444 0 444 88 -45 c114 -57 206 -77 337 -70 127 7 242 37
482 127 103 39 230 82 282 96 219 57 390 38 555 -61 32 -19 60 -35 62 -35 2 0
4 339 4 754 l0 755 -29 21 c-107 75 -256 115 -406 107 -127 -7 -241 -37 -478
-127 -231 -86 -355 -120 -472 -127 -108 -6 -208 13 -302 57 -109 50 -122 63
-125 123 -3 51 -4 53 -48 75 -52 26 -133 29 -195 7z"/>
</g>
</svg>
