<?xml version="1.0" standalone="no"?>
<!DOCTYPE svg PUBLIC "-//W3C//DTD SVG 20010904//EN"
 "http://www.w3.org/TR/2001/REC-SVG-20010904/DTD/svg10.dtd">
<svg version="1.0" xmlns="http://www.w3.org/2000/svg"
 width="1024.000000pt" height="1024.000000pt" viewBox="0 0 1024.000000 1024.000000"
 preserveAspectRatio="xMidYMid meet">

<g transform="translate(0.000000,1024.000000) scale(0.100000,-0.100000)"
fill="#000000" stroke="none">
<path d="M3250 9093 c-1499 -65 -2771 -877 -3129 -1996 -235 -736 -54 -1488
509 -2123 52 -59 123 -131 157 -162 35 -30 63 -58 63 -63 0 -11 59 -109 182
-305 l95 -150 -17 -70 c-27 -105 -40 -234 -40 -389 1 -397 124 -824 359 -1250
167 -301 201 -384 220 -540 21 -161 61 -245 167 -350 154 -152 385 -259 513
-239 69 11 68 10 38 136 -34 139 -36 241 -7 297 61 120 199 132 423 36 14 -6
17 -2 17 22 0 123 -131 255 -328 332 -28 11 -105 34 -170 51 -267 70 -383 162
-510 408 -165 319 -263 689 -298 1120 l-6 84 30 -16 c59 -31 175 -56 257 -56
135 0 258 41 370 121 l44 32 92 -25 92 -24 58 -93 c56 -89 176 -250 323 -434
77 -97 161 -171 247 -217 l56 -30 12 -77 c65 -418 268 -752 686 -1130 174
-156 212 -198 358 -393 214 -286 329 -383 509 -429 93 -24 214 -36 222 -23 3
6 -1 60 -10 122 -20 134 -13 170 47 235 80 87 207 119 432 108 146 -7 144 -8
97 73 -36 64 -84 105 -175 149 -101 50 -205 73 -384 85 -185 12 -256 23 -348
51 -232 72 -468 280 -686 604 -117 175 -245 448 -270 580 -6 29 -4 31 75 69
64 31 100 57 164 120 119 118 195 242 269 441 20 55 38 101 39 102 1 2 65 14
142 28 284 52 600 147 857 256 75 33 144 59 153 59 9 0 105 -18 214 -40 234
-47 332 -51 456 -19 119 31 279 98 400 170 116 68 191 138 610 570 175 180
320 298 457 369 l82 43 70 -47 c128 -86 290 -154 458 -191 111 -25 342 -30
459 -11 192 31 370 101 528 207 373 250 595 685 577 1129 -19 446 -237 822
-617 1061 -343 217 -781 260 -1260 125 -215 -61 -329 -79 -490 -79 -214 0
-370 38 -570 139 -158 79 -210 119 -298 224 -155 185 -391 399 -598 543 -665
462 -1578 709 -2474 670z m5278 -2526 c77 -50 117 -156 92 -246 -17 -64 -91
-134 -158 -151 -203 -48 -355 191 -222 351 47 57 102 81 181 77 52 -3 75 -9
107 -31z"/>
<path d="M9345 5404 c-240 -225 -513 -395 -730 -455 l-83 -23 94 -100 c289
-312 578 -724 898 -1281 311 -539 487 -779 610 -830 51 -22 73 -8 82 53 27
176 -126 840 -380 1647 -157 500 -335 967 -398 1047 -12 15 -21 9 -93 -58z"/>
</g>
</svg>
