<?xml version="1.0" standalone="no"?>
<!DOCTYPE svg PUBLIC "-//W3C//DTD SVG 20010904//EN"
 "http://www.w3.org/TR/2001/REC-SVG-20010904/DTD/svg10.dtd">
<svg version="1.0" xmlns="http://www.w3.org/2000/svg"
 width="512.000000pt" height="512.000000pt" viewBox="0 0 512.000000 512.000000"
 preserveAspectRatio="xMidYMid meet">

<g transform="translate(0.000000,512.000000) scale(0.100000,-0.100000)"
fill="#000000" stroke="none">
<path fill="#ffffff" d="M2542 5108 c-9 -9 -12 -69 -12 -210 l0 -198 -95 0 -95 0 0 -79 c0
-88 3 -83 -75 -97 -60 -10 -229 -71 -305 -109 -393 -198 -671 -583 -731 -1010
-11 -77 -14 -85 -34 -85 -32 0 -72 -35 -85 -75 -16 -48 2 -100 44 -126 30 -18
68 -19 1406 -19 1338 0 1376 1 1406 19 42 26 60 78 44 126 -13 40 -53 75 -84
75 -20 0 -23 9 -38 105 -44 275 -177 535 -378 735 -193 194 -405 307 -702 374
-28 6 -28 7 -28 86 l0 80 -95 0 -95 0 0 198 c0 188 -5 222 -30 222 -3 0 -11
-5 -18 -12z"/>
<path fill="#ffffff" d="M973 2880 c-41 -24 -63 -67 -63 -120 0 -94 62 -140 190 -140 l80 0 0
-305 0 -305 145 0 146 0 -3 305 -3 305 68 0 67 0 0 -305 0 -305 140 0 140 0 0
305 0 305 65 0 65 0 0 -305 0 -305 140 0 140 0 0 305 0 305 65 0 65 0 0 -305
0 -305 140 0 140 0 0 305 0 305 65 0 65 0 0 -305 0 -305 140 0 140 0 0 305 0
305 65 0 65 0 0 -305 0 -305 140 0 140 0 0 305 0 305 70 0 70 0 0 -305 0 -305
140 0 140 0 0 305 0 305 83 0 c103 0 143 18 175 81 36 69 16 139 -51 179 -31
20 -63 20 -1587 20 -1525 0 -1556 0 -1587 -20z"/>
<path fill="#ffffff" d="M594 1840 c-27 -11 -72 -65 -80 -96 -9 -35 3 -88 28 -119 31 -40 77
-55 168 -55 l80 0 0 -645 0 -645 -89 0 c-75 0 -93 -3 -122 -23 -93 -62 -87
-189 12 -239 32 -17 147 -18 1969 -18 1822 0 1937 1 1969 18 99 50 105 177 12
239 -29 20 -47 23 -122 23 l-89 0 0 645 0 645 80 0 c91 0 137 15 168 55 25 31
37 84 28 120 -4 14 -22 43 -41 63 l-33 37 -1959 2 c-1077 1 -1967 -2 -1979 -7z
m826 -915 l0 -645 -120 0 -120 0 0 645 0 645 120 0 120 0 0 -645z m630 0 l0
-645 -120 0 -120 0 0 645 0 645 120 0 120 0 0 -645z m630 0 l0 -645 -120 0
-120 0 0 645 0 645 120 0 120 0 0 -645z m630 0 l0 -645 -120 0 -120 0 0 645 0
645 120 0 120 0 0 -645z m630 0 l0 -645 -120 0 -120 0 0 645 0 645 120 0 120
0 0 -645z"/>
</g>
</svg>
