<?xml version="1.0" standalone="no"?>
<!DOCTYPE svg PUBLIC "-//W3C//DTD SVG 20010904//EN"
 "http://www.w3.org/TR/2001/REC-SVG-20010904/DTD/svg10.dtd">
<svg version="1.0" xmlns="http://www.w3.org/2000/svg"
 width="400.000000pt" height="400.000000pt" viewBox="0 0 400.000000 400.000000"
 preserveAspectRatio="xMidYMid meet">

<g transform="translate(0.000000,400.000000) scale(0.100000,-0.100000)"
fill="#ffffff" stroke="none">
<path d="M450 2300 l0 -1530 700 -350 c385 -192 702 -350 705 -350 3 0 5 158
5 350 l0 350 590 0 590 0 0 470 0 470 -117 0 -118 0 0 -347 0 -348 -472 -3
-473 -2 0 1060 0 1060 -467 234 -468 235 943 0 943 1 -3 -470 -3 -470 118 0
117 0 0 585 0 585 -1295 0 -1295 0 0 -1530z"/>
<path d="M3280 2652 l0 -232 -590 0 -590 0 0 -235 0 -235 590 0 590 0 2 -230
3 -230 348 347 347 348 -350 350 -350 350 0 -233z"/>
</g>
</svg>
