<?xml version="1.0" standalone="no"?>
<!DOCTYPE svg PUBLIC "-//W3C//DTD SVG 20010904//EN"
 "http://www.w3.org/TR/2001/REC-SVG-20010904/DTD/svg10.dtd">
<svg version="1.0" xmlns="http://www.w3.org/2000/svg"
 width="512.000000pt" height="512.000000pt" viewBox="0 0 512.000000 512.000000"
 preserveAspectRatio="xMidYMid meet">

<g transform="translate(0.000000,512.000000) scale(0.100000,-0.100000)"
fill="#ffffff" stroke="none">
<path d="M890 4659 c-36 -6 -114 -26 -173 -46 -345 -115 -600 -401 -699 -785
-33 -126 -8 -200 82 -245 84 -43 140 -28 244 66 162 148 373 240 596 259 52 5
96 8 98 6 2 -1 -18 -15 -45 -30 -229 -132 -380 -303 -472 -536 -141 -356 -68
-759 196 -1090 61 -75 100 -98 168 -98 63 0 111 25 143 73 l27 40 0 211 c1
201 2 215 28 300 59 189 140 328 273 466 47 48 118 111 157 138 82 56 196 116
205 107 5 -4 -159 -1894 -175 -2021 -5 -38 -12 -46 -91 -104 -164 -122 -335
-301 -469 -492 l-55 -78 -267 0 c-261 0 -269 -1 -312 -23 -119 -63 -119 -241
0 -304 l44 -23 2296 0 c2166 0 2298 1 2330 18 19 9 48 34 65 55 27 34 31 47
31 102 0 55 -4 68 -31 102 -57 71 -65 73 -370 73 l-272 0 -33 52 c-18 28 -57
83 -86 120 l-53 69 43 47 c156 169 227 391 197 609 -69 492 -544 792 -1010
637 -228 -76 -410 -263 -486 -499 -22 -69 -23 -70 -56 -68 -192 12 -397 14
-472 4 -49 -6 -91 -10 -92 -8 -5 6 -156 1729 -151 1733 12 12 190 -91 267
-156 287 -238 429 -568 398 -926 -10 -107 -9 -116 12 -159 39 -80 137 -116
229 -84 39 14 149 146 212 256 300 526 133 1160 -384 1452 -32 18 -57 34 -55
36 7 7 193 -16 250 -30 181 -46 305 -112 453 -241 40 -35 85 -68 100 -74 91
-35 213 32 231 126 9 48 -1 101 -41 221 -124 371 -386 625 -745 720 -81 22
-118 26 -250 27 -222 1 -355 -33 -545 -143 -108 -63 -273 -226 -343 -340 l-51
-84 -18 33 c-34 63 -130 185 -194 249 -123 122 -298 219 -474 262 -94 24 -306
33 -405 18z m280 -353 c75 -14 186 -51 194 -65 3 -4 -27 -1 -67 7 -98 19 -397
19 -495 0 -82 -17 -82 -12 -2 22 111 46 243 59 370 36z m1872 0 c64 -12 204
-63 196 -72 -2 -1 -37 4 -78 13 -101 21 -397 22 -497 1 -84 -17 -86 -8 -5 22
126 48 250 59 384 36z m-1940 -811 c-94 -100 -184 -223 -252 -346 -43 -78 -45
-66 -9 47 37 116 134 250 232 323 45 33 105 69 115 71 2 0 -36 -43 -86 -95z
m1832 -17 c83 -75 149 -173 186 -276 44 -120 38 -143 -13 -47 -65 124 -143
231 -247 339 l-95 99 53 -28 c29 -16 82 -55 116 -87z m-889 -1795 c-1 -1 -32
-14 -69 -28 l-67 -25 5 42 c3 24 17 178 31 343 14 165 29 311 32 325 4 14 21
-128 38 -315 17 -187 31 -341 30 -342z m1880 298 c168 -76 257 -240 234 -431
-8 -70 -52 -166 -102 -222 l-33 -37 -78 60 c-42 33 -114 82 -158 110 -101 63
-321 173 -394 196 l-55 17 6 36 c18 101 97 207 193 258 81 43 122 52 227 48
76 -3 101 -8 160 -35z m-934 -581 c155 -26 307 -77 464 -155 173 -86 295 -175
440 -320 l120 -120 -663 -3 c-364 -1 -960 -1 -1325 0 l-662 3 65 70 c292 314
670 503 1090 545 121 12 335 3 471 -20z"/>
</g>
</svg>
