<?xml version="1.0" standalone="no"?>
<!DOCTYPE svg PUBLIC "-//W3C//DTD SVG 20010904//EN"
 "http://www.w3.org/TR/2001/REC-SVG-20010904/DTD/svg10.dtd">
<svg version="1.0" xmlns="http://www.w3.org/2000/svg"
 width="512.000000pt" height="512.000000pt" viewBox="0 0 512.000000 512.000000"
 preserveAspectRatio="xMidYMid meet">

<g transform="translate(0.000000,512.000000) scale(0.100000,-0.100000)"
fill="#000000" stroke="none">
<path d="M14 5023 c16 -231 63 -538 122 -788 181 -773 508 -1301 941 -1518
164 -83 292 -116 476 -124 l127 -6 -5 29 c-2 16 -7 71 -10 122 -17 269 -140
719 -286 1046 -27 61 -47 111 -45 113 8 8 241 -329 365 -530 298 -480 540
-1003 649 -1402 115 -418 175 -896 191 -1510 6 -242 9 -285 25 -318 70 -144
243 -179 364 -73 63 56 72 88 72 288 0 198 -15 513 -34 718 -13 134 -13 136
15 250 54 223 132 422 241 615 28 50 80 142 116 205 172 304 419 637 624 842
100 100 259 238 274 238 2 0 -23 -35 -57 -77 -231 -290 -395 -636 -425 -897
l-7 -59 104 7 c57 4 144 16 193 26 559 122 941 758 1051 1750 8 74 15 155 15
179 l0 44 -92 -7 c-434 -33 -919 -155 -1233 -311 -172 -85 -287 -166 -406
-284 -148 -148 -225 -276 -272 -454 -29 -113 -31 -359 -3 -493 l19 -91 -86
-100 c-80 -93 -237 -314 -237 -334 0 -5 -4 -9 -8 -9 -5 0 -21 44 -36 97 -57
204 -185 501 -294 681 l-50 83 24 92 c74 291 75 588 5 813 -103 326 -333 590
-696 800 -377 217 -926 371 -1529 429 -88 8 -170 15 -184 15 l-25 0 7 -97z"/>
</g>
</svg>
